<svg width="40" height="40" viewBox="0 0 40 40" fill="none" xmlns="http://www.w3.org/2000/svg">
<g id="Iconly/Broken/Edit Square">
<g id="Edit Square">
<path id="Edit Square_2" fill-rule="evenodd" clip-rule="evenodd" d="M12.2548 20.3236L12.0995 26.5071C12.0928 26.8371 12.218 27.1554 12.4484 27.3921C12.6805 27.6304 12.9976 27.7637 13.3282 27.7637H19.4716C20.7486 27.7637 21.9506 27.2671 22.8554 26.3637L35.1622 14.0769C36.1338 13.1085 36.6663 11.8202 36.6663 10.4501C36.6663 9.08346 36.1338 7.79344 35.1622 6.82509L33.1673 4.8334C31.164 2.83337 27.907 2.83337 25.9054 4.8334L13.6554 17.0636C12.784 17.9336 12.2865 19.0919 12.2548 20.3236ZM14.7121 20.3853C14.7288 19.787 14.9692 19.2219 15.3949 18.7986L24.8971 9.31013L28.0189 12.4302C28.2593 12.6685 28.5731 12.7885 28.8886 12.7885C29.2025 12.7885 29.518 12.6685 29.7584 12.4302C30.2375 11.9485 30.2375 11.1735 29.7584 10.6935L26.6349 7.5751L27.6433 6.56842C28.6866 5.52674 30.3844 5.52674 31.4294 6.56842L33.4244 8.56179C34.4677 9.60347 34.4677 11.2985 33.4244 12.3418L21.1176 24.6287C20.6769 25.0687 20.0926 25.3087 19.4716 25.3087H14.5902L14.7121 20.3853ZM4.56369 20.7385C5.24146 20.7385 5.79236 20.1885 5.79236 19.5118V13.23C5.79236 8.74662 8.5285 5.84991 12.7638 5.84991H18.8921C19.5716 5.84991 20.1225 5.30157 20.1225 4.62323C20.1225 3.94655 19.5716 3.39654 18.8921 3.39654H12.7638C7.12287 3.39654 3.33334 7.34827 3.33334 13.23V19.5118C3.33334 20.1885 3.88424 20.7385 4.56369 20.7385ZM35.4305 19.0164C34.751 19.0164 34.2018 19.5648 34.2018 20.2431V26.8332C34.2018 31.3166 31.464 34.2117 27.2271 34.2117H12.7634C8.52817 34.2117 5.7937 31.3166 5.7937 26.8332C5.7937 26.1565 5.2428 25.6065 4.56335 25.6065C3.88558 25.6065 3.33301 26.1565 3.33301 26.8332C3.33301 32.715 7.12254 36.6667 12.7634 36.6667H27.2271C32.8696 36.6667 36.6592 32.715 36.6592 26.8332V20.2431C36.6592 19.5648 36.1083 19.0164 35.4305 19.0164Z" fill="#926B22"/>
</g>
</g>
</svg>
